# xmcd CD database file
#
# Track frame offsets:
#	150
#	12323
#	24184
#	38801
#	51650
#	64759
#	77852
#	88777
#	99910
#	110939
#	123710
#	136143
#	150214
#	163921
#	175808
#	188891
#	203638
#	217501
#	230506
#	245539
#	258362
#	269339
#
# Disc length: 3724 seconds
#
# Revision: 0
# Processed by: cddbd v1.5.1PL0 Copyright (c) Steve Scherf et al.
# Submitted via: CDex 1.51
#
DISCID=2b0e8a16
DTITLE=Dinah Washington - Jazz Biography
DYEAR=1900
DGENRE=Jazz
TTITLE0=A Slick Chick
TTITLE1=After I Say I'm Sorry?
TTITLE2=Am I Blue?
TTITLE3=Baby Get Lost
TTITLE4=Embraceable You
TTITLE5=Evil Gal Blues
TTITLE6=Good Daddy Blues
TTITLE7=I Cried For You
TTITLE8=I Only Know
TTITLE9=I Wanna Be Loved
TTITLE10=I'll Never Be Free
TTITLE11=I'll Wait
TTITLE12=It Isn't Fair
TTITLE13=New Blowtop Blues
TTITLE14=Postman Blues
TTITLE15=Record Ban Blues
TTITLE16=Salty Papa Blues
TTITLE17=That's Why A Woman Loves A Heel
TTITLE18=Time Out For Tears
TTITLE19=Trouble In Mind
TTITLE20=TV Is the Thing This Year
TTITLE21=Wheel Of Fortune
EXTD=
EXTT0=
EXTT1=
EXTT2=
EXTT3=
EXTT4=
EXTT5=
EXTT6=
EXTT7=
EXTT8=
EXTT9=
EXTT10=
EXTT11=
EXTT12=
EXTT13=
EXTT14=
EXTT15=
EXTT16=
EXTT17=
EXTT18=
EXTT19=
EXTT20=
EXTT21=
PLAYORDER=
